<!-- icon666.com - MILLIONS vector ICONS FREE --><svg xmlns="http://www.w3.org/2000/svg" version="1.1" viewBox="0 0 600 600"><g id="surface1"><path d="M 300 0 C 134.316406 0 0 134.316406 0 300 C 0 465.683594 134.316406 600 300 600 C 465.683594 600 600 465.683594 600 300 C 599.8125 134.394531 465.605469 0.1875 300 0 Z M 300 580 C 145.359375 580 20 454.640625 20 300 C 20 145.359375 145.359375 20 300 20 C 454.640625 20 580 145.359375 580 300 C 579.824219 454.566406 454.566406 579.824219 300 580 Z M 300 580 " style=" stroke:none; fill:White"></path><path d="M 520 250 L 350 250 L 350 80 C 350 74.476562 345.523438 70 340 70 L 260 70 C 254.476562 70 250 74.476562 250 80 L 250 250 L 80 250 C 74.476562 250 70 254.476562 70 260 L 70 340 C 70 345.523438 74.476562 350 80 350 L 250 350 L 250 520 C 250 525.523438 254.476562 530 260 530 L 340 530 C 345.523438 530 350 525.523438 350 520 L 350 350 L 520 350 C 525.523438 350 530 345.523438 530 340 L 530 260 C 530 254.476562 525.523438 250 520 250 Z M 510 330 L 340 330 C 334.476562 330 330 334.476562 330 340 L 330 510 L 270 510 L 270 340 C 270 334.476562 265.523438 330 260 330 L 90 330 L 90 270 L 260 270 C 265.523438 270 270 265.523438 270 260 L 270 90 L 330 90 L 330 260 C 330 265.523438 334.476562 270 340 270 L 510 270 Z M 510 330 " style=" stroke:none; fill:green;"></path></g></svg>