<!-- icon666.com - MILLIONS vector ICONS FREE --><svg id="Layer_1" enable-background="new 0 0 512 512" viewBox="0 0 512 512" xmlns="http://www.w3.org/2000/svg"><path d="m359.568 275.844c-17.282-16.578-37.919-28.549-60.31-35.288 18.623-13.459 30.775-35.342 30.775-60.024 0-40.821-33.211-74.032-74.032-74.032s-74.032 33.21-74.032 74.032c0 24.681 12.152 46.564 30.774 60.023-22.392 6.739-43.029 18.711-60.312 35.289-27.903 26.765-44.211 62.733-45.92 101.279-.254 5.735 3.59 10.848 9.171 12.196 44.451 10.737 91.66 16.181 140.318 16.181 48.657 0 95.866-5.444 140.317-16.181 5.581-1.349 9.425-6.461 9.171-12.196-1.709-38.546-18.017-74.515-45.92-101.279zm-103.566-145.344c27.588 0 50.032 22.444 50.032 50.032s-22.444 50.032-50.032 50.032-50.032-22.444-50.032-50.032 22.444-50.032 50.032-50.032zm-.002 251c-43.123 0-85.017-4.438-124.689-13.2 7.655-62.48 60.633-110.091 124.689-110.091s117.034 47.61 124.689 110.091c-39.673 8.762-81.567 13.2-124.689 13.2zm0-381.5c-141.159 0-256 114.841-256 256s114.841 256 256 256 256-114.842 256-256-114.841-256-256-256zm0 488c-127.925 0-232-104.075-232-232s104.075-232 232-232 232 104.075 232 232-104.075 232-232 232z"></path></svg>